<mxfile host="app.diagrams.net" modified="2023-05-10T13:04:33.434Z" agent="Mozilla/5.0 (Windows NT 10.0; Win64; x64) AppleWebKit/537.36 (KHTML, like Gecko) Chrome/113.0.0.0 Safari/537.36 Edg/113.0.1774.35" etag="iZKqEVGnOuuN6A9xkkVh" version="21.2.9" type="github">
  <diagram name="Page-1" id="efa7a0a1-bf9b-a30e-e6df-94a7791c09e9">
    <mxGraphModel dx="996" dy="623" grid="1" gridSize="10" guides="1" tooltips="1" connect="1" arrows="1" fold="1" page="1" pageScale="1" pageWidth="827" pageHeight="583" background="none" math="0" shadow="0">
      <root>
        <mxCell id="0" />
        <mxCell id="1" parent="0" />
        <mxCell id="25" value="&lt;p style=&quot;margin: 4px 0px 0px; text-align: center;&quot;&gt;0&lt;/p&gt;&lt;hr&gt;&lt;p style=&quot;text-align: center; margin: 0px 0px 0px 8px;&quot;&gt;&lt;b&gt;Online Library&lt;/b&gt;&lt;/p&gt;&lt;p style=&quot;text-align: center; margin: 0px 0px 0px 8px;&quot;&gt;&lt;b&gt;Management System&lt;/b&gt;&lt;/p&gt;" style="verticalAlign=top;align=left;overflow=fill;fontSize=12;fontFamily=Helvetica;html=1;shadow=1;rounded=1;container=0;labelBackgroundColor=none;" parent="1" vertex="1">
          <mxGeometry x="364" y="253" width="160" height="78" as="geometry" />
        </mxCell>
        <mxCell id="gcZOCHTruEdf8p6Z6TIm-25" value="User" style="whiteSpace=wrap;html=1;aspect=fixed;fontSize=16;fontStyle=1" vertex="1" parent="1">
          <mxGeometry x="114" y="252" width="80" height="80" as="geometry" />
        </mxCell>
        <mxCell id="gcZOCHTruEdf8p6Z6TIm-26" value="" style="endArrow=classic;html=1;rounded=0;fontSize=12;startSize=8;endSize=8;curved=1;exitX=1;exitY=0.25;exitDx=0;exitDy=0;entryX=0;entryY=0.25;entryDx=0;entryDy=0;" edge="1" parent="1" source="gcZOCHTruEdf8p6Z6TIm-25" target="25">
          <mxGeometry relative="1" as="geometry">
            <mxPoint x="254" y="292" as="sourcePoint" />
            <mxPoint x="354" y="292" as="targetPoint" />
          </mxGeometry>
        </mxCell>
        <mxCell id="gcZOCHTruEdf8p6Z6TIm-27" value="Register" style="edgeLabel;resizable=0;html=1;align=center;verticalAlign=middle;fontSize=12;" connectable="0" vertex="1" parent="gcZOCHTruEdf8p6Z6TIm-26">
          <mxGeometry relative="1" as="geometry" />
        </mxCell>
        <mxCell id="gcZOCHTruEdf8p6Z6TIm-31" value="" style="endArrow=classic;html=1;rounded=0;fontSize=12;startSize=8;endSize=8;curved=1;exitX=0;exitY=0.5;exitDx=0;exitDy=0;entryX=1;entryY=0.5;entryDx=0;entryDy=0;" edge="1" parent="1" source="25" target="gcZOCHTruEdf8p6Z6TIm-25">
          <mxGeometry relative="1" as="geometry">
            <mxPoint x="224" y="310" as="sourcePoint" />
            <mxPoint x="294" y="400" as="targetPoint" />
          </mxGeometry>
        </mxCell>
        <mxCell id="gcZOCHTruEdf8p6Z6TIm-32" value="Book Details" style="edgeLabel;resizable=0;html=1;align=center;verticalAlign=middle;fontSize=12;" connectable="0" vertex="1" parent="gcZOCHTruEdf8p6Z6TIm-31">
          <mxGeometry relative="1" as="geometry" />
        </mxCell>
        <mxCell id="gcZOCHTruEdf8p6Z6TIm-33" value="" style="endArrow=classic;html=1;rounded=0;fontSize=12;startSize=8;endSize=8;curved=1;exitX=1;exitY=0.75;exitDx=0;exitDy=0;entryX=0;entryY=0.75;entryDx=0;entryDy=0;" edge="1" parent="1" source="gcZOCHTruEdf8p6Z6TIm-25" target="25">
          <mxGeometry relative="1" as="geometry">
            <mxPoint x="234" y="282" as="sourcePoint" />
            <mxPoint x="374" y="284" as="targetPoint" />
          </mxGeometry>
        </mxCell>
        <mxCell id="gcZOCHTruEdf8p6Z6TIm-34" value="Read statistics &amp;amp; Ratings" style="edgeLabel;resizable=0;html=1;align=center;verticalAlign=middle;fontSize=12;" connectable="0" vertex="1" parent="gcZOCHTruEdf8p6Z6TIm-33">
          <mxGeometry relative="1" as="geometry" />
        </mxCell>
        <mxCell id="gcZOCHTruEdf8p6Z6TIm-36" value="DB&lt;br&gt;Admin" style="whiteSpace=wrap;html=1;aspect=fixed;fontSize=16;fontStyle=1" vertex="1" parent="1">
          <mxGeometry x="634" y="252" width="80" height="80" as="geometry" />
        </mxCell>
        <mxCell id="gcZOCHTruEdf8p6Z6TIm-37" value="" style="endArrow=classic;html=1;rounded=0;fontSize=12;startSize=8;endSize=8;curved=1;entryX=1;entryY=0.5;entryDx=0;entryDy=0;exitX=0;exitY=0.5;exitDx=0;exitDy=0;" edge="1" parent="1" source="gcZOCHTruEdf8p6Z6TIm-36" target="25">
          <mxGeometry relative="1" as="geometry">
            <mxPoint x="644" y="274" as="sourcePoint" />
            <mxPoint x="634" y="280" as="targetPoint" />
          </mxGeometry>
        </mxCell>
        <mxCell id="gcZOCHTruEdf8p6Z6TIm-38" value="Book Details" style="edgeLabel;resizable=0;html=1;align=center;verticalAlign=middle;fontSize=12;" connectable="0" vertex="1" parent="gcZOCHTruEdf8p6Z6TIm-37">
          <mxGeometry relative="1" as="geometry" />
        </mxCell>
      </root>
    </mxGraphModel>
  </diagram>
</mxfile>
